<svg xmlns="http://www.w3.org/2000/svg" xmlns:se="http://svg-edit.googlecode.com" xmlns:xlink="http://www.w3.org/1999/xlink" xmlns:dc="http://purl.org/dc/elements/1.1/" xmlns:cc="http://creativecommons.org/ns#" xmlns:rdf="http://www.w3.org/1999/02/22-rdf-syntax-ns#" xmlns:inkscape="http://www.inkscape.org/namespaces/inkscape" width="777" height="480">                                    <title>my vector image</title>                                    <!-- Created with Vector Paint - http://www.vectorpaint.yaks.com/ https://chrome.google.com/webstore/detail/hnbpdiengicdefcjecjbnjnoifekhgdo -->                                    <rect id="backgroundrect" width="100%" height="100%" x="0" y="0" fill="#FFFFFF" stroke="none"/>                                <g class="currentLayer" style=""><title>Layer 1</title><path fill="#4a90d6" fill-opacity="1" stroke="none" stroke-opacity="1" stroke-width="2" stroke-dasharray="none" stroke-linejoin="round" stroke-linecap="butt" stroke-dashoffset="" fill-rule="nonzero" opacity="0.1" marker-start="" marker-mid="" marker-end="" d="M131,228 C131,173.85635359116023 162.32596685082873,130 201,130 C239.67403314917127,130 271,173.85635359116023 271,228 C271,282.1436464088398 239.67403314917127,326 201,326 C162.32596685082873,326 131,282.1436464088398 131,228 Z" id="svg_1"/><path fill="#4141e8" fill-opacity="1" stroke="none" stroke-opacity="1" stroke-width="2" stroke-dasharray="none" stroke-linejoin="round" stroke-linecap="butt" stroke-dashoffset="" fill-rule="nonzero" opacity="0.1" marker-start="" marker-mid="" marker-end="" d="M542,249 C542,240.71270718232043 548.9364640883978,234 557.5,234 C566.0635359116022,234 573,240.71270718232043 573,249 C573,257.28729281767954 566.0635359116022,264 557.5,264 C548.9364640883978,264 542,257.28729281767954 542,249 Z" id="svg_2"/><path fill="#4141e8" fill-opacity="1" stroke="none" stroke-opacity="1" stroke-width="2" stroke-dasharray="none" stroke-linejoin="round" stroke-linecap="butt" stroke-dashoffset="" fill-rule="nonzero" opacity="0.1" marker-start="" marker-mid="" marker-end="" d="M499,103 C499,89.1878453038674 505.93646408839777,78 514.5,78 C523.0635359116022,78 530,89.1878453038674 530,103 C530,116.8121546961326 523.0635359116022,128 514.5,128 C505.93646408839777,128 499,116.8121546961326 499,103 Z" id="svg_4"/><ellipse fill="#4141e8" fill-opacity="1" stroke="none" stroke-opacity="1" stroke-width="2" stroke-dasharray="none" stroke-linejoin="round" stroke-linecap="butt" stroke-dashoffset="" fill-rule="nonzero" opacity="0.1" id="svg_6" rx="0" ry="0" cx="530" cy="78" style="color: rgb(0, 0, 0);"/><path fill="#4141e8" fill-opacity="1" stroke="none" stroke-opacity="1" stroke-width="2" stroke-dasharray="none" stroke-linejoin="round" stroke-linecap="butt" stroke-dashoffset="" fill-rule="nonzero" opacity="0.1" marker-start="" marker-mid="" marker-end="" d="M348,315 C348,284.060773480663 373.060773480663,259 404,259 C434.939226519337,259 460,284.060773480663 460,315 C460,345.939226519337 434.939226519337,371 404,371 C373.060773480663,371 348,345.939226519337 348,315 Z" id="svg_3"/><path fill="#4141e8" fill-opacity="1" stroke="none" stroke-opacity="1" stroke-width="2" stroke-dasharray="none" stroke-linejoin="round" stroke-linecap="butt" stroke-dashoffset="" fill-rule="nonzero" opacity="0.1" marker-start="" marker-mid="" marker-end="" d="M402,371 C402,371 410.72651933701655,371 421.5,371 C432.27348066298345,371 441,371 441,371 C441,371 432.27348066298345,371 421.5,371 C410.72651933701655,371 402,371 402,371 Z" id="svg_7" class=""/><path fill="#d50bd5" fill-opacity="1" stroke="none" stroke-opacity="1" stroke-width="2" stroke-dasharray="none" stroke-linejoin="round" stroke-linecap="butt" stroke-dashoffset="" fill-rule="nonzero" opacity="0.1" marker-start="" marker-mid="" marker-end="" d="M653,130 C653,106.79558011049724 661.7265193370166,88 672.5,88 C683.2734806629834,88 692,106.79558011049724 692,130 C692,153.20441988950276 683.2734806629834,172 672.5,172 C661.7265193370166,172 653,153.20441988950276 653,130 Z" id="svg_10"/><path fill="#d50bd5" fill-opacity="1" stroke="none" stroke-opacity="1" stroke-width="2" stroke-dasharray="none" stroke-linejoin="round" stroke-linecap="butt" stroke-dashoffset="" fill-rule="nonzero" opacity="0.1" marker-start="" marker-mid="" marker-end="" d="M475,159.5 C475,145.41160220994476 504.7596685082873,134 541.5,134 C578.2403314917127,134 608,145.41160220994476 608,159.5 C608,173.58839779005524 578.2403314917127,185 541.5,185 C504.7596685082873,185 475,173.58839779005524 475,159.5 Z" id="svg_12"/><path fill="#d50bd5" fill-opacity="1" stroke="none" stroke-opacity="1" stroke-width="2" stroke-dasharray="none" stroke-linejoin="round" stroke-linecap="butt" stroke-dashoffset="" fill-rule="nonzero" opacity="0.1" marker-start="" marker-mid="" marker-end="" d="M354,168.5 C354,155.51657458563537 364.06906077348066,145 376.5,145 C388.93093922651934,145 399,155.51657458563537 399,168.5 C399,181.48342541436463 388.93093922651934,192 376.5,192 C364.06906077348066,192 354,181.48342541436463 354,168.5 Z" id="svg_14"/><path fill="#d50bd5" fill-opacity="1" stroke="none" stroke-opacity="1" stroke-width="2" stroke-dasharray="none" stroke-linejoin="round" stroke-linecap="butt" stroke-dashoffset="" fill-rule="nonzero" opacity="0.1" marker-start="" marker-mid="" marker-end="" d="M459,402 C459,394.2651933701657 473.0966850828729,388 490.5,388 C507.9033149171271,388 522,394.2651933701657 522,402 C522,409.7348066298343 507.9033149171271,416 490.5,416 C473.0966850828729,416 459,409.7348066298343 459,402 Z" id="svg_16"/><path fill="#d50bd5" fill-opacity="1" stroke="none" stroke-opacity="1" stroke-width="2" stroke-dasharray="none" stroke-linejoin="round" stroke-linecap="butt" stroke-dashoffset="" fill-rule="nonzero" opacity="0.1" marker-start="" marker-mid="" marker-end="" d="M622,303.5 C622,283.33425414364643 638.3342541436464,267 658.5,267 C678.6657458563536,267 695,283.33425414364643 695,303.5 C695,323.66574585635357 678.6657458563536,340 658.5,340 C638.3342541436464,340 622,323.66574585635357 622,303.5 Z" id="svg_19"/><path fill="#d50bd5" fill-opacity="1" stroke="none" stroke-opacity="1" stroke-width="2" stroke-dasharray="none" stroke-linejoin="round" stroke-linecap="butt" stroke-dashoffset="" fill-rule="nonzero" opacity="0.1" marker-start="" marker-mid="" marker-end="" d="M456,250 C456,233.4254143646409 464.72651933701655,220 475.5,220 C486.27348066298345,220 495,233.4254143646409 495,250 C495,266.57458563535914 486.27348066298345,280 475.5,280 C464.72651933701655,280 456,266.57458563535914 456,250 Z" id="svg_21"/><path fill="#d50bd5" fill-opacity="1" stroke="none" stroke-opacity="1" stroke-width="2" stroke-dasharray="none" stroke-linejoin="round" stroke-linecap="butt" stroke-dashoffset="" fill-rule="nonzero" opacity="0.1" marker-start="" marker-mid="" marker-end="" d="M278,58.5 C278,49.93646408839779 305.9696132596685,43 340.5,43 C375.0303867403315,43 403,49.93646408839779 403,58.5 C403,67.06353591160222 375.0303867403315,74 340.5,74 C305.9696132596685,74 278,67.06353591160222 278,58.5 Z" id="svg_23"/><path fill="#d50bd5" fill-opacity="1" stroke="none" stroke-opacity="1" stroke-width="2" stroke-dasharray="none" stroke-linejoin="round" stroke-linecap="butt" stroke-dashoffset="" fill-rule="nonzero" opacity="0.1" marker-start="" marker-mid="" marker-end="" d="M278,43.5 C278,43.22375690607735 278,43 278,43 C278,43 278,43.22375690607735 278,43.5 C278,43.77624309392265 278,44 278,44 C278,44 278,43.77624309392265 278,43.5 Z" id="svg_25"/><path fill="#d50bd5" fill-opacity="1" stroke="none" stroke-opacity="1" stroke-width="2" stroke-dasharray="none" stroke-linejoin="round" stroke-linecap="butt" stroke-dashoffset="" fill-rule="nonzero" opacity="0.1" marker-start="" marker-mid="" marker-end="" d="M252,328 C252,311.42541436464086 256.2513812154696,298 261.5,298 C266.7486187845304,298 271,311.42541436464086 271,328 C271,344.57458563535914 266.7486187845304,358 261.5,358 C256.2513812154696,358 252,344.57458563535914 252,328 Z" id="svg_27"/><path fill="#d50bd5" fill-opacity="1" stroke="none" stroke-opacity="1" stroke-width="2" stroke-dasharray="none" stroke-linejoin="round" stroke-linecap="butt" stroke-dashoffset="" fill-rule="nonzero" opacity="0.1" marker-start="" marker-mid="" marker-end="" d="M179,173.5 C179,153.3342541436464 193.54419889502762,137 211.5,137 C229.45580110497238,137 244,153.3342541436464 244,173.5 C244,193.6657458563536 229.45580110497238,210 211.5,210 C193.54419889502762,210 179,193.6657458563536 179,173.5 Z" id="svg_5"/><path fill="#d50bd5" fill-opacity="1" stroke="none" stroke-opacity="1" stroke-width="2" stroke-dasharray="none" stroke-linejoin="round" stroke-linecap="butt" stroke-dashoffset="" fill-rule="nonzero" opacity="0.1" marker-start="" marker-mid="" marker-end="" d="M377,225.5 C377,217.4889502762431 382.5939226519337,211 389.5,211 C396.4060773480663,211 402,217.4889502762431 402,225.5 C402,233.5110497237569 396.4060773480663,240 389.5,240 C382.5939226519337,240 377,233.5110497237569 377,225.5 Z" id="svg_9"/><path fill="#d50bd5" fill-opacity="1" stroke="none" stroke-opacity="1" stroke-width="2" stroke-dasharray="none" stroke-linejoin="round" stroke-linecap="butt" stroke-dashoffset="" fill-rule="nonzero" opacity="0.1" marker-start="" marker-mid="" marker-end="" d="M424,45.5 C424,34.726519337016576 431.3839779005525,26 440.5,26 C449.6160220994475,26 457,34.726519337016576 457,45.5 C457,56.273480662983424 449.6160220994475,65 440.5,65 C431.3839779005525,65 424,56.273480662983424 424,45.5 Z" id="svg_15"/><path fill="#d50bd5" fill-opacity="1" stroke="none" stroke-opacity="1" stroke-width="2" stroke-dasharray="none" stroke-linejoin="round" stroke-linecap="butt" stroke-dashoffset="" fill-rule="nonzero" opacity="0.1" marker-start="" marker-mid="" marker-end="" d="M544,90 C544,76.1878453038674 552.9502762430939,65 564,65 C575.0497237569061,65 584,76.1878453038674 584,90 C584,103.8121546961326 575.0497237569061,115 564,115 C552.9502762430939,115 544,103.8121546961326 544,90 Z" id="svg_18"/><path fill="#d50bd5" fill-opacity="1" stroke="none" stroke-opacity="1" stroke-width="2" stroke-dasharray="none" stroke-linejoin="round" stroke-linecap="butt" stroke-dashoffset="" fill-rule="nonzero" opacity="0.1" marker-start="" marker-mid="" marker-end="" d="M518,370 C518,356.1878453038674 531.8729281767955,345 549,345 C566.1270718232045,345 580,356.1878453038674 580,370 C580,383.8121546961326 566.1270718232045,395 549,395 C531.8729281767955,395 518,383.8121546961326 518,370 Z" id="svg_22"/><path fill="#d50bd5" fill-opacity="1" stroke="none" stroke-opacity="1" stroke-width="2" stroke-dasharray="none" stroke-linejoin="round" stroke-linecap="butt" stroke-dashoffset="" fill-rule="nonzero" opacity="0.1" marker-start="" marker-mid="" marker-end="" d="M537,425 C537,413.3977900552486 554.9005524861878,404 577,404 C599.0994475138122,404 617,413.3977900552486 617,425 C617,436.6022099447514 599.0994475138122,446 577,446 C554.9005524861878,446 537,436.6022099447514 537,425 Z" id="svg_26"/><path fill="#d50bd5" fill-opacity="1" stroke="none" stroke-opacity="1" stroke-width="2" stroke-dasharray="none" stroke-linejoin="round" stroke-linecap="butt" stroke-dashoffset="" fill-rule="nonzero" opacity="0.1" marker-start="" marker-mid="" marker-end="" d="M35,394 C35,365.8232044198895 109.06353591160222,343 200.5,343 C291.93646408839777,343 366,365.8232044198895 366,394 C366,422.1767955801105 291.93646408839777,445 200.5,445 C109.06353591160222,445 35,422.1767955801105 35,394 Z" id="svg_29"/><path fill="#d50bd5" fill-opacity="1" stroke="none" stroke-opacity="1" stroke-width="2" stroke-dasharray="none" stroke-linejoin="round" stroke-linecap="butt" stroke-dashoffset="" fill-rule="nonzero" opacity="0.1" marker-start="" marker-mid="" marker-end="" d="M69,58.5 C69,42.20165745856353 87.34806629834254,29 110,29 C132.65193370165747,29 151,42.20165745856353 151,58.5 C151,74.79834254143647 132.65193370165747,88 110,88 C87.34806629834254,88 69,74.79834254143647 69,58.5 Z" id="svg_31"/><path fill="#d50bd5" fill-opacity="1" stroke="none" stroke-opacity="1" stroke-width="2" stroke-dasharray="none" stroke-linejoin="round" stroke-linecap="butt" stroke-dashoffset="" fill-rule="nonzero" opacity="0.1" marker-start="" marker-mid="" marker-end="" d="M192,137 C192,101.64088397790056 218.40331491712706,73 251,73 C283.5966850828729,73 310,101.64088397790056 310,137 C310,172.35911602209944 283.5966850828729,201 251,201 C218.40331491712706,201 192,172.35911602209944 192,137 Z" id="svg_33"/><path fill="#d50bd5" fill-opacity="1" stroke="none" stroke-opacity="1" stroke-width="2" stroke-dasharray="none" stroke-linejoin="round" stroke-linecap="butt" stroke-dashoffset="" fill-rule="nonzero" opacity="0.1" marker-start="" marker-mid="" marker-end="" d="M379,236 C379,217.21546961325967 387.2790055248619,202 397.5,202 C407.7209944751381,202 416,217.21546961325967 416,236 C416,254.78453038674033 407.7209944751381,270 397.5,270 C387.2790055248619,270 379,254.78453038674033 379,236 Z" id="svg_35"/><path fill="#d50bd5" fill-opacity="1" stroke="none" stroke-opacity="1" stroke-width="2" stroke-dasharray="none" stroke-linejoin="round" stroke-linecap="butt" stroke-dashoffset="" fill-rule="nonzero" opacity="0.1" marker-start="" marker-mid="" marker-end="" d="M14,243 C14,181.12154696132598 135.27624309392266,131 285,131 C434.72375690607737,131 556,181.12154696132598 556,243 C556,304.878453038674 434.72375690607737,355 285,355 C135.27624309392266,355 14,304.878453038674 14,243 Z" id="svg_37"/><path fill="#d50bd5" fill-opacity="1" stroke="none" stroke-opacity="1" stroke-width="2" stroke-dasharray="none" stroke-linejoin="round" stroke-linecap="butt" stroke-dashoffset="" fill-rule="nonzero" opacity="0.1" marker-start="" marker-mid="" marker-end="" d="M423,204.5 C423,129.63812154696132 425.01381215469615,69 427.5,69 C429.98618784530385,69 432,129.63812154696132 432,204.5 C432,279.3618784530387 429.98618784530385,340 427.5,340 C425.01381215469615,340 423,279.3618784530387 423,204.5 Z" id="svg_39"/><path fill="#d50bd5" fill-opacity="1" stroke="none" stroke-opacity="1" stroke-width="2" stroke-dasharray="none" stroke-linejoin="round" stroke-linecap="butt" stroke-dashoffset="" fill-rule="nonzero" opacity="0.1" marker-start="" marker-mid="" marker-end="" d="M535,324.5 C535,320.3563535911602 560.5082872928177,317 592,317 C623.4917127071823,317 649,320.3563535911602 649,324.5 C649,328.6436464088398 623.4917127071823,332 592,332 C560.5082872928177,332 535,328.6436464088398 535,324.5 Z" id="svg_41"/><path fill="#d50bd5" fill-opacity="1" stroke="none" stroke-opacity="1" stroke-width="2" stroke-dasharray="none" stroke-linejoin="round" stroke-linecap="butt" stroke-dashoffset="" fill-rule="nonzero" opacity="0.1" marker-start="" marker-mid="" marker-end="" d="M362,214.5 C362,161.18508287292818 439.19613259668506,118 534.5,118 C629.8038674033149,118 707,161.18508287292818 707,214.5 C707,267.8149171270718 629.8038674033149,311 534.5,311 C439.19613259668506,311 362,267.8149171270718 362,214.5 Z" id="svg_43"/><path fill="#d50bd5" fill-opacity="1" stroke="none" stroke-opacity="1" stroke-width="2" stroke-dasharray="none" stroke-linejoin="round" stroke-linecap="butt" stroke-dashoffset="" fill-rule="nonzero" opacity="0.1" marker-start="" marker-mid="" marker-end="" d="M109,233.5 C109,194.54972375690608 144.57734806629833,163 188.5,163 C232.42265193370167,163 268,194.54972375690608 268,233.5 C268,272.4502762430939 232.42265193370167,304 188.5,304 C144.57734806629833,304 109,272.4502762430939 109,233.5 Z" id="svg_45"/><path fill="#d50bd5" fill-opacity="1" stroke="none" stroke-opacity="1" stroke-width="2" stroke-dasharray="none" stroke-linejoin="round" stroke-linecap="butt" stroke-dashoffset="" fill-rule="nonzero" opacity="0.1" marker-start="" marker-mid="" marker-end="" d="M173,368 C173,344.7955801104972 227.14917127071823,326 294,326 C360.8508287292818,326 415,344.7955801104972 415,368 C415,391.2044198895028 360.8508287292818,410 294,410 C227.14917127071823,410 173,391.2044198895028 173,368 Z" id="svg_47"/><path fill="#d50bd5" fill-opacity="1" stroke="none" stroke-opacity="1" stroke-width="2" stroke-dasharray="none" stroke-linejoin="round" stroke-linecap="butt" stroke-dashoffset="" fill-rule="nonzero" opacity="0.1" marker-start="" marker-mid="" marker-end="" d="M456,322.5 C456,279.68232044198896 509.0303867403315,245 574.5,245 C639.9696132596684,245 693,279.68232044198896 693,322.5 C693,365.31767955801104 639.9696132596684,400 574.5,400 C509.0303867403315,400 456,365.31767955801104 456,322.5 Z" id="svg_49"/><path fill="#d50bd5" fill-opacity="1" stroke="none" stroke-opacity="1" stroke-width="2" stroke-dasharray="none" stroke-linejoin="round" stroke-linecap="butt" stroke-dashoffset="" fill-rule="nonzero" opacity="0.1" marker-start="" marker-mid="" marker-end="" d="M476,422.5 C476,395.15193370165747 536.6381215469613,373 611.5,373 C686.3618784530387,373 747,395.15193370165747 747,422.5 C747,449.84806629834253 686.3618784530387,472 611.5,472 C536.6381215469613,472 476,449.84806629834253 476,422.5 Z" id="svg_51"/><path fill="#d50bd5" fill-opacity="1" stroke="none" stroke-opacity="1" stroke-width="2" stroke-dasharray="none" stroke-linejoin="round" stroke-linecap="butt" stroke-dashoffset="" fill-rule="nonzero" opacity="0.1" marker-start="" marker-mid="" marker-end="" d="M384,338 C384,278.8839779005525 408.8370165745856,231 439.5,231 C470.1629834254144,231 495,278.8839779005525 495,338 C495,397.1160220994475 470.1629834254144,445 439.5,445 C408.8370165745856,445 384,397.1160220994475 384,338 Z" id="svg_53"/><path fill="#d50bd5" fill-opacity="1" stroke="none" stroke-opacity="1" stroke-width="2" stroke-dasharray="none" stroke-linejoin="round" stroke-linecap="butt" stroke-dashoffset="" fill-rule="nonzero" opacity="0.1" marker-start="" marker-mid="" marker-end="" d="M287,77.5 C287,55.12430939226519 332.87016574585635,37 389.5,37 C446.12983425414365,37 492,55.12430939226519 492,77.5 C492,99.87569060773481 446.12983425414365,118 389.5,118 C332.87016574585635,118 287,99.87569060773481 287,77.5 Z" id="svg_55"/><path fill="#b804b8" fill-opacity="1" stroke="none" stroke-opacity="1" stroke-width="2" stroke-dasharray="none" stroke-linejoin="round" stroke-linecap="butt" stroke-dashoffset="" fill-rule="nonzero" opacity="0.1" marker-start="" marker-mid="" marker-end="" d="M570,207.5 C570,205.56629834254144 606.4723756906077,204 651.5,204 C696.5276243093923,204 733,205.56629834254144 733,207.5 C733,209.43370165745856 696.5276243093923,211 651.5,211 C606.4723756906077,211 570,209.43370165745856 570,207.5 Z" id="svg_57"/><path fill="#6767e7" fill-opacity="1" stroke="none" stroke-opacity="1" stroke-width="2" stroke-dasharray="none" stroke-linejoin="round" stroke-linecap="butt" stroke-dashoffset="" fill-rule="nonzero" opacity="0.1" marker-start="" marker-mid="" marker-end="" d="M269,127 C269,122.02762430939227 335.6795580110497,118 418,118 C500.3204419889503,118 567,122.02762430939227 567,127 C567,131.97237569060775 500.3204419889503,136 418,136 C335.6795580110497,136 269,131.97237569060775 269,127 Z" id="svg_59"/><path fill="#6767e7" fill-opacity="1" stroke="none" stroke-opacity="1" stroke-width="2" stroke-dasharray="none" stroke-linejoin="round" stroke-linecap="butt" stroke-dashoffset="" fill-rule="nonzero" opacity="0.1" marker-start="" marker-mid="" marker-end="" d="M272,119 C272,118.4475138121547 277.81767955801104,118 285,118 C292.18232044198896,118 298,118.4475138121547 298,119 C298,119.5524861878453 292.18232044198896,120 285,120 C277.81767955801104,120 272,119.5524861878453 272,119 Z" id="svg_61"/><path fill="#6767e7" fill-opacity="1" stroke="none" stroke-opacity="1" stroke-width="2" stroke-dasharray="none" stroke-linejoin="round" stroke-linecap="butt" stroke-dashoffset="" fill-rule="nonzero" opacity="0.1" marker-start="" marker-mid="" marker-end="" d="M426,144.5 C426,92.29005524861878 437.6353591160221,50 452,50 C466.3646408839779,50 478,92.29005524861878 478,144.5 C478,196.70994475138122 466.3646408839779,239 452,239 C437.6353591160221,239 426,196.70994475138122 426,144.5 Z" id="svg_63"/><path fill="#6767e7" fill-opacity="1" stroke="none" stroke-opacity="1" stroke-width="2" stroke-dasharray="none" stroke-linejoin="round" stroke-linecap="butt" stroke-dashoffset="" fill-rule="nonzero" opacity="0.1" marker-start="" marker-mid="" marker-end="" d="M214,283.5 C214,252.83701657458565 258.08011049723757,228 312.5,228 C366.91988950276243,228 411,252.83701657458565 411,283.5 C411,314.1629834254144 366.91988950276243,339 312.5,339 C258.08011049723757,339 214,314.1629834254144 214,283.5 Z" id="svg_65"/><path fill="#6767e7" fill-opacity="1" stroke="none" stroke-opacity="1" stroke-width="2" stroke-dasharray="none" stroke-linejoin="round" stroke-linecap="butt" stroke-dashoffset="" fill-rule="nonzero" opacity="0.1" marker-start="" marker-mid="" marker-end="" d="M222,221 C222,181.22099447513813 285.3232044198895,149 363.5,149 C441.6767955801105,149 505,181.22099447513813 505,221 C505,260.7790055248619 441.6767955801105,293 363.5,293 C285.3232044198895,293 222,260.7790055248619 222,221 Z" id="svg_67"/><path fill="#6767e7" fill-opacity="1" stroke="none" stroke-opacity="1" stroke-width="2" stroke-dasharray="none" stroke-linejoin="round" stroke-linecap="butt" stroke-dashoffset="" fill-rule="nonzero" opacity="0.1" marker-start="" marker-mid="" marker-end="" d="M534,285.5 C534,235.5 553.0193370165746,195 576.5,195 C599.9806629834254,195 619,235.5 619,285.5 C619,335.5 599.9806629834254,376 576.5,376 C553.0193370165746,376 534,335.5 534,285.5 Z" id="svg_69"/><path fill="#6767e7" fill-opacity="1" stroke="none" stroke-opacity="1" stroke-width="2" stroke-dasharray="none" stroke-linejoin="round" stroke-linecap="butt" stroke-dashoffset="" fill-rule="nonzero" opacity="0.1" marker-start="" marker-mid="" marker-end="" d="M265,66 C265,38.37569060773481 307.73756906077347,16 360.5,16 C413.26243093922653,16 456,38.37569060773481 456,66 C456,93.62430939226519 413.26243093922653,116 360.5,116 C307.73756906077347,116 265,93.62430939226519 265,66 Z" id="svg_71"/><path fill="#6767e7" fill-opacity="1" stroke="none" stroke-opacity="1" stroke-width="2" stroke-dasharray="none" stroke-linejoin="round" stroke-linecap="butt" stroke-dashoffset="" fill-rule="nonzero" opacity="0.1" marker-start="" marker-mid="" marker-end="" d="M-6,135 C-6,75.33149171270719 46.5828729281768,27 111.5,27 C176.4171270718232,27 229,75.33149171270719 229,135 C229,194.6685082872928 176.4171270718232,243 111.5,243 C46.5828729281768,243 -6,194.6685082872928 -6,135 Z" id="svg_73"/><path fill="#6767e7" fill-opacity="1" stroke="none" stroke-opacity="1" stroke-width="2" stroke-dasharray="none" stroke-linejoin="round" stroke-linecap="butt" stroke-dashoffset="" fill-rule="nonzero" opacity="0.1" marker-start="" marker-mid="" marker-end="" d="M60,304 C60,283.0055248618784 97.36740331491713,266 143.5,266 C189.6325966850829,266 227,283.0055248618784 227,304 C227,324.9944751381216 189.6325966850829,342 143.5,342 C97.36740331491713,342 60,324.9944751381216 60,304 Z" id="svg_75"/><path fill="#6767e7" fill-opacity="1" stroke="none" stroke-opacity="1" stroke-width="2" stroke-dasharray="none" stroke-linejoin="round" stroke-linecap="butt" stroke-dashoffset="" fill-rule="nonzero" opacity="0.1" marker-start="" marker-mid="" marker-end="" d="M158,382 C158,335.5911602209945 209.91160220994476,298 274,298 C338.08839779005524,298 390,335.5911602209945 390,382 C390,428.4088397790055 338.08839779005524,466 274,466 C209.91160220994476,466 158,428.4088397790055 158,382 Z" id="svg_77"/><path fill="#6767e7" fill-opacity="1" stroke="none" stroke-opacity="1" stroke-width="2" stroke-dasharray="none" stroke-linejoin="round" stroke-linecap="butt" stroke-dashoffset="" fill-rule="nonzero" opacity="0.1" marker-start="" marker-mid="" marker-end="" d="M15,352 C15,328.24309392265195 38.7182320441989,309 68,309 C97.2817679558011,309 121,328.24309392265195 121,352 C121,375.75690607734805 97.2817679558011,395 68,395 C38.7182320441989,395 15,375.75690607734805 15,352 Z" id="svg_79"/><path fill="#6767e7" fill-opacity="1" stroke="none" stroke-opacity="1" stroke-width="2" stroke-dasharray="none" stroke-linejoin="round" stroke-linecap="butt" stroke-dashoffset="" fill-rule="nonzero" opacity="0.1" marker-start="" marker-mid="" marker-end="" d="M115,404 C115,386.3204419889503 132.45303867403314,372 154,372 C175.54696132596686,372 193,386.3204419889503 193,404 C193,421.6795580110497 175.54696132596686,436 154,436 C132.45303867403314,436 115,421.6795580110497 115,404 Z" id="svg_81"/><path fill="#6767e7" fill-opacity="1" stroke="none" stroke-opacity="1" stroke-width="2" stroke-dasharray="none" stroke-linejoin="round" stroke-linecap="butt" stroke-dashoffset="" fill-rule="nonzero" opacity="0.1" marker-start="" marker-mid="" marker-end="" d="M338,427.5 C338,424.46132596685084 402.2182320441989,422 481.5,422 C560.7817679558011,422 625,424.46132596685084 625,427.5 C625,430.53867403314916 560.7817679558011,433 481.5,433 C402.2182320441989,433 338,430.53867403314916 338,427.5 Z" id="svg_83"/><path fill="#6767e7" fill-opacity="1" stroke="none" stroke-opacity="1" stroke-width="2" stroke-dasharray="none" stroke-linejoin="round" stroke-linecap="butt" stroke-dashoffset="" fill-rule="nonzero" opacity="0.1" marker-start="" marker-mid="" marker-end="" d="M659,360 C659,324.08839779005524 669.292817679558,295 682,295 C694.707182320442,295 705,324.08839779005524 705,360 C705,395.91160220994476 694.707182320442,425 682,425 C669.292817679558,425 659,395.91160220994476 659,360 Z" id="svg_85"/><path fill="#6767e7" fill-opacity="1" stroke="none" stroke-opacity="1" stroke-width="2" stroke-dasharray="none" stroke-linejoin="round" stroke-linecap="butt" stroke-dashoffset="" fill-rule="nonzero" opacity="0.1" marker-start="" marker-mid="" marker-end="" d="M334,280 C334,239.11602209944752 406.27348066298345,206 495.5,206 C584.7265193370166,206 657,239.11602209944752 657,280 C657,320.8839779005525 584.7265193370166,354 495.5,354 C406.27348066298345,354 334,320.8839779005525 334,280 Z" id="svg_87"/><path fill="#6767e7" fill-opacity="1" stroke="none" stroke-opacity="1" stroke-width="2" stroke-dasharray="none" stroke-linejoin="round" stroke-linecap="butt" stroke-dashoffset="" fill-rule="nonzero" opacity="0.1" marker-start="" marker-mid="" marker-end="" d="M267,174 C267,170.13259668508286 271.9226519337017,167 278,167 C284.0773480662983,167 289,170.13259668508286 289,174 C289,177.86740331491714 284.0773480662983,181 278,181 C271.9226519337017,181 267,177.86740331491714 267,174 Z" id="svg_89"/><path fill="#6767e7" fill-opacity="1" stroke="none" stroke-opacity="1" stroke-width="2" stroke-dasharray="none" stroke-linejoin="round" stroke-linecap="butt" stroke-dashoffset="" fill-rule="nonzero" opacity="0.1" marker-start="" marker-mid="" marker-end="" d="M118,48.5 C118,15.074585635359114 157.1574585635359,-12 205.5,-12 C253.8425414364641,-12 293,15.074585635359114 293,48.5 C293,81.92541436464089 253.8425414364641,109 205.5,109 C157.1574585635359,109 118,81.92541436464089 118,48.5 Z" id="svg_91"/><path fill="#6767e7" fill-opacity="1" stroke="none" stroke-opacity="1" stroke-width="2" stroke-dasharray="none" stroke-linejoin="round" stroke-linecap="butt" stroke-dashoffset="" fill-rule="nonzero" opacity="0.1" marker-start="" marker-mid="" marker-end="" d="M177,126 C177,95.61325966850829 274.7817679558011,71 395.5,71 C516.2182320441989,71 614,95.61325966850829 614,126 C614,156.38674033149172 516.2182320441989,181 395.5,181 C274.7817679558011,181 177,156.38674033149172 177,126 Z" id="svg_93"/><path fill="#6767e7" fill-opacity="1" stroke="none" stroke-opacity="1" stroke-width="2" stroke-dasharray="none" stroke-linejoin="round" stroke-linecap="butt" stroke-dashoffset="" fill-rule="nonzero" opacity="0.1" marker-start="" marker-mid="" marker-end="" d="M612,161.5 C612,141.3342541436464 615.8038674033149,125 620.5,125 C625.1961325966851,125 629,141.3342541436464 629,161.5 C629,181.6657458563536 625.1961325966851,198 620.5,198 C615.8038674033149,198 612,181.6657458563536 612,161.5 Z" id="svg_95"/><path fill="#6767e7" fill-opacity="1" stroke="none" stroke-opacity="1" stroke-width="2" stroke-dasharray="none" stroke-linejoin="round" stroke-linecap="butt" stroke-dashoffset="" fill-rule="nonzero" opacity="0.1" marker-start="" marker-mid="" marker-end="" d="M435,375.5 C435,356.99171270718233 513.7624309392265,342 611,342 C708.2375690607735,342 787,356.99171270718233 787,375.5 C787,394.00828729281767 708.2375690607735,409 611,409 C513.7624309392265,409 435,394.00828729281767 435,375.5 Z" id="svg_97"/><path fill="#6767e7" fill-opacity="1" stroke="none" stroke-opacity="1" stroke-width="2" stroke-dasharray="none" stroke-linejoin="round" stroke-linecap="butt" stroke-dashoffset="" fill-rule="nonzero" opacity="0.1" marker-start="" marker-mid="" marker-end="" d="M683,255 C683,219.08839779005524 693.0690607734807,190 705.5,190 C717.9309392265193,190 728,219.08839779005524 728,255 C728,290.91160220994476 717.9309392265193,320 705.5,320 C693.0690607734807,320 683,290.91160220994476 683,255 Z" id="svg_99"/><path fill="#6767e7" fill-opacity="1" stroke="none" stroke-opacity="1" stroke-width="2" stroke-dasharray="none" stroke-linejoin="round" stroke-linecap="butt" stroke-dashoffset="" fill-rule="nonzero" opacity="0.1" marker-start="" marker-mid="" marker-end="" d="M690,381.5 C690,342.5497237569061 704.3204419889503,311 722,311 C739.6795580110497,311 754,342.5497237569061 754,381.5 C754,420.4502762430939 739.6795580110497,452 722,452 C704.3204419889503,452 690,420.4502762430939 690,381.5 Z" id="svg_101"/><path fill="#6767e7" fill-opacity="1" stroke="none" stroke-opacity="1" stroke-width="2" stroke-dasharray="none" stroke-linejoin="round" stroke-linecap="butt" stroke-dashoffset="" fill-rule="nonzero" opacity="0.1" marker-start="" marker-mid="" marker-end="" d="M13,329 C13,292.5359116022099 82.8121546961326,263 169,263 C255.1878453038674,263 325,292.5359116022099 325,329 C325,365.4640883977901 255.1878453038674,395 169,395 C82.8121546961326,395 13,365.4640883977901 13,329 Z" id="svg_103"/><path fill="#6767e7" fill-opacity="1" stroke="none" stroke-opacity="1" stroke-width="2" stroke-dasharray="none" stroke-linejoin="round" stroke-linecap="butt" stroke-dashoffset="" fill-rule="nonzero" opacity="0.1" marker-start="" marker-mid="" marker-end="" d="M9,71 C9,32.32596685082873 29.138121546961326,1 54,1 C78.86187845303867,1 99,32.32596685082873 99,71 C99,109.67403314917127 78.86187845303867,141 54,141 C29.138121546961326,141 9,109.67403314917127 9,71 Z" id="svg_105"/><path fill="#6767e7" fill-opacity="1" stroke="none" stroke-opacity="1" stroke-width="2" stroke-dasharray="none" stroke-linejoin="round" stroke-linecap="butt" stroke-dashoffset="" fill-rule="nonzero" opacity="0.1" marker-start="" marker-mid="" marker-end="" d="M63,38.5 C63,26.62154696132597 127.88950276243094,17 208,17 C288.11049723756906,17 353,26.62154696132597 353,38.5 C353,50.37845303867403 288.11049723756906,60 208,60 C127.88950276243094,60 63,50.37845303867403 63,38.5 Z" id="svg_107"/><path fill="#6767e7" fill-opacity="1" stroke="none" stroke-opacity="1" stroke-width="2" stroke-dasharray="none" stroke-linejoin="round" stroke-linecap="butt" stroke-dashoffset="" fill-rule="nonzero" opacity="0.1" marker-start="" marker-mid="" marker-end="" d="M488,174 C488,141.40331491712706 495.3839779005525,115 504.5,115 C513.6160220994475,115 521,141.40331491712706 521,174 C521,206.59668508287294 513.6160220994475,233 504.5,233 C495.3839779005525,233 488,206.59668508287294 488,174 Z" id="svg_109"/><path fill="#6767e7" fill-opacity="1" stroke="none" stroke-opacity="1" stroke-width="2" stroke-dasharray="none" stroke-linejoin="round" stroke-linecap="butt" stroke-dashoffset="" fill-rule="nonzero" opacity="0.1" marker-start="" marker-mid="" marker-end="" d="M558,406 C558,388.8729281767956 611.0303867403316,375 676.5,375 C741.9696132596684,375 795,388.8729281767956 795,406 C795,423.1270718232044 741.9696132596684,437 676.5,437 C611.0303867403316,437 558,423.1270718232044 558,406 Z" id="svg_111"/><path fill="#6767e7" fill-opacity="1" stroke="none" stroke-opacity="1" stroke-width="2" stroke-dasharray="none" stroke-linejoin="round" stroke-linecap="butt" stroke-dashoffset="" fill-rule="nonzero" opacity="0.1" marker-start="" marker-mid="" marker-end="" d="M564,188 C564,134.96132596685084 576.9779005524862,92 593,92 C609.0220994475138,92 622,134.96132596685084 622,188 C622,241.03867403314916 609.0220994475138,284 593,284 C576.9779005524862,284 564,241.03867403314916 564,188 Z" id="svg_113"/><path fill="#6767e7" fill-opacity="1" stroke="none" stroke-opacity="1" stroke-width="2" stroke-dasharray="none" stroke-linejoin="round" stroke-linecap="butt" stroke-dashoffset="" fill-rule="nonzero" opacity="0.1" marker-start="" marker-mid="" marker-end="" d="M348,38 C348,24.187845303867405 381.78729281767954,13 423.5,13 C465.21270718232046,13 499,24.187845303867405 499,38 C499,51.812154696132595 465.21270718232046,63 423.5,63 C381.78729281767954,63 348,51.812154696132595 348,38 Z" id="svg_115"/></g></svg>