<svg xmlns="http://www.w3.org/2000/svg" height="841.7505" width="726.0279" style=""><rect id="backgroundrect" width="100%" height="100%" x="0" y="0" fill="none" stroke="none"/><g class="currentLayer" style=""><title>Layer 1</title><path d="M428.3320129304537,489.17032643291844 c-3.7889375524120026,-3.4131013237795265 -22.417335190637967,-19.905505247712455 -25.890527947015634,-22.18417726433582 c-3.472647428577956,-2.2747466556989484 -5.9986057968526225,-3.4111386433173183 -8.524564165127291,3.4131013237795265 c-2.5259583682746674,6.824239967096845 -9.787543349264624,22.18417726433582 -11.997756921504962,26.735633256195925 c-2.2096682444406204,4.549493311397897 -4.420427144480668,5.1206333259003936 -8.209364696892672,1.7055693216586598 c-3.7889375524120026,-3.4121199835484224 -15.997736332406227,-10.611231918926975 -30.46964548121304,-33.84249920985069 c-11.263745703090082,-18.080212417859112 -18.868341870100068,-40.40766535593611 -21.078010114540685,-47.23386800349516 c-2.2107589000400485,-6.826202647559054 -0.2366722650758224,-10.516041916509893 1.6605231501287494,-13.915404477053963 c1.7052400297052865,-3.0558934796576906 3.79002820801143,-7.964557315639631 5.683951656417717,-11.946835973459446 c1.8944687762060015,-3.9803159773576073 2.5259583682746674,-6.826202647559054 3.7889375524120026,-11.373733278494742 c1.2629791841373337,-4.552437332091209 0.6314895920686676,-8.532753309448818 -0.3162901238340482,-11.94487329299724 c-0.946689060303287,-3.4131013237795265 -8.524564165127291,-36.975918567765596 -11.682012125470624,-50.62930520311481 c-3.075648790386255,-13.294216110765166 -6.199286427147328,-11.493456786689425 -8.525109492927006,-11.70444493637677 c-2.207486933241765,-0.19724938645189374 -4.7361719405150025,-0.23944701638936353 -7.261584980989958,-0.23944701638936353 c-2.5259583682746674,0 -6.631186044520719,1.7065506618897635 -10.1049241286981,8.530790628986608 c-3.4721021007782404,6.826202647559054 -13.260736105642295,23.323513272647496 -13.260736105642295,56.882405155709165 c0,33.563798584217174 13.576480901676627,65.98433579919828 15.47149500568234,70.53481045082728 c1.895014104005716,4.552437332091209 26.717244891381867,73.42191341073507 64.72768318703835,102.95632900603947 c9.039353608057189,7.02639605470426 16.096985991954156,11.220644202442525 21.599888818866866,14.362895622437364 c9.076435898437731,5.190308482308773 17.335970752904082,4.457247329674126 23.8651804988783,2.7016296562291657 c7.2795807983805165,-1.9558110805901654 22.417335190637967,-16.493385264164033 25.5747831509813,-32.41955587474998 c3.157447960343335,-15.930095971510367 3.157447960343335,-29.581519926397366 2.2096682444406204,-32.4244625759055 c-0.946689060303287,-2.8449053299703415 -3.472647428577956,-4.551455991860106 -7.261584980989958,-7.964557315639631 m-69.13447713652619,169.86999400409317 h-0.05071548537339065 c-22.61637983753353,-0.015701443697663235 -44.79867874649482,-10.950775638888942 -64.15018104714137,-31.614856885244745 l-4.602566629585103,-4.916514557830772 l-47.702549279971194,22.518814283142266 l12.732313467719548,-83.69654563039339 l-2.996030931628029,-8.581820321004015 c-12.616703974180204,-36.111357824163036 -19.280609686683757,-77.84775785301389 -19.270793786288905,-120.70484842578544 c0.027811717785407752,-125.05316698980702 56.56903397551908,-226.79361544950868 126.09069384984214,-226.79361544950868 c33.66526638753635,0.021589485084286944 65.3100932771328,23.64441152821849 89.10765312884655,66.5172035446877 c23.795923868314645,42.86984799577591 36.89306163404277,99.855293875751 36.87997376684964,160.45894118780632 c-0.0283570455851216,125.06396173234917 -56.568488647719384,226.81324225413076 -126.03779705326987,226.81324225413076 M466.4656953088455,239.19058534311677 C437.835985823867,187.61036145606224 399.7622895034438,159.191729703523 359.196445138328,159.16228949658992 C275.61350794838273,159.16228949658992 207.58713690087515,281.57074456357174 207.55332657729286,432.0268847757356 c-0.010906555994277551,48.09646606663553 6.971470591542175,95.03985736172392 20.2414772697796,136.4249375878396 L206.28271280395956,709.8580429644984 l80.38677095582227,-37.946464056327414 c22.14957924097845,21.73963013964573 47.086874194094236,33.19874001824652 72.46642999277796,33.21346012171308 h0.06271269696709592 c83.57366661735016,0 151.6060362706546,-122.42023114975512 151.6403919220366,-272.8793153826123 c0.015269178391988554,-72.91456051125435 -15.743613577739568,-141.47491441710048 -44.373323062717986,-193.05415696392387 " fill="#ffffff" fill-rule="evenodd" id="svg_1" class="selected" fill-opacity="1"/></g></svg>